<svg xml:space="preserve" width="592.055" height="437.841" xmlns="http://www.w3.org/2000/svg"><defs><clipPath clipPathUnits="userSpaceOnUse" id="a"><path d="M71.016 45.625h365.826v275.556H71.016z"/></clipPath><clipPath clipPathUnits="userSpaceOnUse" id="b"><path d="M71.016 45.625h365.826v275.556H71.016z"/></clipPath><clipPath clipPathUnits="userSpaceOnUse" id="c"><path d="M71.016 45.625h365.826v275.556H71.016z"/></clipPath><clipPath clipPathUnits="userSpaceOnUse" id="d"><path d="M71.016 45.625h365.826v275.556H71.016z"/></clipPath><clipPath clipPathUnits="userSpaceOnUse" id="e"><path d="M71.016 45.625h365.826v275.556H71.016z"/></clipPath><clipPath clipPathUnits="userSpaceOnUse" id="f"><path d="M71.016 45.625h365.826v275.556H71.016z"/></clipPath><clipPath clipPathUnits="userSpaceOnUse" id="g"><path d="M71.016 45.625h365.826v275.556H71.016z"/></clipPath><clipPath clipPathUnits="userSpaceOnUse" id="h"><path d="M71.016 45.625h365.826v275.556H71.016z"/></clipPath><clipPath clipPathUnits="userSpaceOnUse" id="i"><path d="M71.016 45.625h365.826v275.556H71.016z"/></clipPath><clipPath clipPathUnits="userSpaceOnUse" id="j"><path d="M71.016 45.625h365.826v275.556H71.016z"/></clipPath><clipPath clipPathUnits="userSpaceOnUse" id="k"><path d="M71.016 45.625h365.826v275.556H71.016z"/></clipPath><clipPath clipPathUnits="userSpaceOnUse" id="l"><path d="M71.016 45.625h365.826v275.556H71.016z"/></clipPath><clipPath clipPathUnits="userSpaceOnUse" id="m"><path d="M71.016 45.625h365.826v275.556H71.016z"/></clipPath><clipPath clipPathUnits="userSpaceOnUse" id="n"><path d="M71.016 45.625h365.826v275.556H71.016z"/></clipPath><clipPath clipPathUnits="userSpaceOnUse" id="o"><path d="M71.016 45.625h365.826v275.556H71.016z"/></clipPath><clipPath clipPathUnits="userSpaceOnUse" id="p"><path d="M71.016 45.625h365.826v275.556H71.016z"/></clipPath><clipPath clipPathUnits="userSpaceOnUse" id="q"><path d="M71.016 45.625h365.826v275.556H71.016z"/></clipPath><clipPath clipPathUnits="userSpaceOnUse" id="r"><path d="M71.016 45.625h365.826v275.556H71.016z"/></clipPath><clipPath clipPathUnits="userSpaceOnUse" id="s"><path d="M71.016 45.625h365.826v275.556H71.016z"/></clipPath><clipPath clipPathUnits="userSpaceOnUse" id="t"><path d="M71.016 45.625h365.826v275.556H71.016z"/></clipPath><clipPath clipPathUnits="userSpaceOnUse" id="u"><path d="M71.016 45.625h365.826v275.556H71.016z"/></clipPath><clipPath clipPathUnits="userSpaceOnUse" id="v"><path d="M71.016 45.625h365.826v275.556H71.016z"/></clipPath><clipPath clipPathUnits="userSpaceOnUse" id="w"><path d="M71.016 45.625h365.826v275.556H71.016z"/></clipPath></defs><g clip-path="url(#a)" transform="matrix(1.33333 0 0 -1.33333 0 437.841)"><path d="M87.644 45.625v275.556" style="fill:none;stroke:#ccc;stroke-width:.8;stroke-linecap:round;stroke-linejoin:round;stroke-miterlimit:10;stroke-dasharray:none;stroke-opacity:1"/></g><text transform="matrix(1.33333 0 0 1.33333 97.171 401.241)" style="font-variant:normal;font-weight:400;font-size:13.2px;font-family:DejaVuSans;-inkscape-font-specification:DejaVuSans;writing-mode:lr-tb;fill:#262626;fill-opacity:1;fill-rule:nonzero;stroke:none"><tspan x="0 8.3951998 12.5928 20.988001" y="0">0.00</tspan></text><g clip-path="url(#b)" transform="matrix(1.33333 0 0 -1.33333 0 437.841)"><path d="M135.154 45.625v275.556" style="fill:none;stroke:#ccc;stroke-width:.8;stroke-linecap:round;stroke-linejoin:round;stroke-miterlimit:10;stroke-dasharray:none;stroke-opacity:1"/></g><text transform="matrix(1.33333 0 0 1.33333 160.518 401.241)" style="font-variant:normal;font-weight:400;font-size:13.2px;font-family:DejaVuSans;-inkscape-font-specification:DejaVuSans;writing-mode:lr-tb;fill:#262626;fill-opacity:1;fill-rule:nonzero;stroke:none"><tspan x="0 8.3951998 12.5928 20.988001" y="0">0.05</tspan></text><g clip-path="url(#c)" transform="matrix(1.33333 0 0 -1.33333 0 437.841)"><path d="M182.664 45.625v275.556" style="fill:none;stroke:#ccc;stroke-width:.8;stroke-linecap:round;stroke-linejoin:round;stroke-miterlimit:10;stroke-dasharray:none;stroke-opacity:1"/></g><text transform="matrix(1.33333 0 0 1.33333 223.864 401.241)" style="font-variant:normal;font-weight:400;font-size:13.2px;font-family:DejaVuSans;-inkscape-font-specification:DejaVuSans;writing-mode:lr-tb;fill:#262626;fill-opacity:1;fill-rule:nonzero;stroke:none"><tspan x="0 8.3951998 12.5928 20.988001" y="0">0.10</tspan></text><g clip-path="url(#d)" transform="matrix(1.33333 0 0 -1.33333 0 437.841)"><path d="M230.174 45.625v275.556" style="fill:none;stroke:#ccc;stroke-width:.8;stroke-linecap:round;stroke-linejoin:round;stroke-miterlimit:10;stroke-dasharray:none;stroke-opacity:1"/></g><text transform="matrix(1.33333 0 0 1.33333 287.21 401.241)" style="font-variant:normal;font-weight:400;font-size:13.2px;font-family:DejaVuSans;-inkscape-font-specification:DejaVuSans;writing-mode:lr-tb;fill:#262626;fill-opacity:1;fill-rule:nonzero;stroke:none"><tspan x="0 8.3951998 12.5928 20.988001" y="0">0.15</tspan></text><g clip-path="url(#e)" transform="matrix(1.33333 0 0 -1.33333 0 437.841)"><path d="M277.684 45.625v275.556" style="fill:none;stroke:#ccc;stroke-width:.8;stroke-linecap:round;stroke-linejoin:round;stroke-miterlimit:10;stroke-dasharray:none;stroke-opacity:1"/></g><text transform="matrix(1.33333 0 0 1.33333 350.557 401.241)" style="font-variant:normal;font-weight:400;font-size:13.2px;font-family:DejaVuSans;-inkscape-font-specification:DejaVuSans;writing-mode:lr-tb;fill:#262626;fill-opacity:1;fill-rule:nonzero;stroke:none"><tspan x="0 8.3951998 12.5928 20.988001" y="0">0.20</tspan></text><g clip-path="url(#f)" transform="matrix(1.33333 0 0 -1.33333 0 437.841)"><path d="M325.193 45.625v275.556" style="fill:none;stroke:#ccc;stroke-width:.8;stroke-linecap:round;stroke-linejoin:round;stroke-miterlimit:10;stroke-dasharray:none;stroke-opacity:1"/></g><text transform="matrix(1.33333 0 0 1.33333 413.904 401.241)" style="font-variant:normal;font-weight:400;font-size:13.2px;font-family:DejaVuSans;-inkscape-font-specification:DejaVuSans;writing-mode:lr-tb;fill:#262626;fill-opacity:1;fill-rule:nonzero;stroke:none"><tspan x="0 8.3951998 12.5928 20.988001" y="0">0.25</tspan></text><g clip-path="url(#g)" transform="matrix(1.33333 0 0 -1.33333 0 437.841)"><path d="M372.703 45.625v275.556" style="fill:none;stroke:#ccc;stroke-width:.8;stroke-linecap:round;stroke-linejoin:round;stroke-miterlimit:10;stroke-dasharray:none;stroke-opacity:1"/></g><text transform="matrix(1.33333 0 0 1.33333 477.25 401.241)" style="font-variant:normal;font-weight:400;font-size:13.2px;font-family:DejaVuSans;-inkscape-font-specification:DejaVuSans;writing-mode:lr-tb;fill:#262626;fill-opacity:1;fill-rule:nonzero;stroke:none"><tspan x="0 8.3951998 12.5928 20.988001" y="0">0.30</tspan></text><g clip-path="url(#h)" transform="matrix(1.33333 0 0 -1.33333 0 437.841)"><path d="M420.213 45.625v275.556" style="fill:none;stroke:#ccc;stroke-width:.8;stroke-linecap:round;stroke-linejoin:round;stroke-miterlimit:10;stroke-dasharray:none;stroke-opacity:1"/></g><text transform="matrix(1.33333 0 0 1.33333 540.597 401.241)" style="font-variant:normal;font-weight:400;font-size:13.2px;font-family:DejaVuSans;-inkscape-font-specification:DejaVuSans;writing-mode:lr-tb;fill:#262626;fill-opacity:1;fill-rule:nonzero;stroke:none"><tspan x="0 8.3951998 12.5928 20.988001" y="0">0.35</tspan></text><text transform="matrix(1.33333 0 0 1.33333 240.082 424.366)" style="font-variant:normal;font-weight:400;font-size:14.4px;font-family:DejaVuSans;-inkscape-font-specification:DejaVuSans;writing-mode:lr-tb;fill:#262626;fill-opacity:1;fill-rule:nonzero;stroke:none"><tspan x="0 8.1831999 17.0392 22.6451 30.5651 39.421101 48.550701 54.195499 63.022701 72.166702 81.022697 85.601898 94.969276 103.82527 117.85088 126.66367 135.18848 144.01567" y="0">Percentage Removal</tspan></text><g clip-path="url(#i)" transform="matrix(1.33333 0 0 -1.33333 0 437.841)"><path d="M71.016 92.265h365.826" style="fill:none;stroke:#ccc;stroke-width:.8;stroke-linecap:round;stroke-linejoin:round;stroke-miterlimit:10;stroke-dasharray:none;stroke-opacity:1"/></g><text transform="matrix(1.33333 0 0 1.33333 32.996 321.404)" style="font-variant:normal;font-weight:400;font-size:13.2px;font-family:DejaVuSans;-inkscape-font-specification:DejaVuSans;writing-mode:lr-tb;fill:#262626;fill-opacity:1;fill-rule:nonzero;stroke:none"><tspan x="0 8.3951998 12.5928 20.988001 29.3832" y="0">0.990</tspan></text><g clip-path="url(#j)" transform="matrix(1.33333 0 0 -1.33333 0 437.841)"><path d="M71.016 142.213h365.826" style="fill:none;stroke:#ccc;stroke-width:.8;stroke-linecap:round;stroke-linejoin:round;stroke-miterlimit:10;stroke-dasharray:none;stroke-opacity:1"/></g><text transform="matrix(1.33333 0 0 1.33333 32.996 254.807)" style="font-variant:normal;font-weight:400;font-size:13.2px;font-family:DejaVuSans;-inkscape-font-specification:DejaVuSans;writing-mode:lr-tb;fill:#262626;fill-opacity:1;fill-rule:nonzero;stroke:none"><tspan x="0 8.3951998 12.5928 20.988001 29.3832" y="0">0.992</tspan></text><g clip-path="url(#k)" transform="matrix(1.33333 0 0 -1.33333 0 437.841)"><path d="M71.016 192.161h365.826" style="fill:none;stroke:#ccc;stroke-width:.8;stroke-linecap:round;stroke-linejoin:round;stroke-miterlimit:10;stroke-dasharray:none;stroke-opacity:1"/></g><text transform="matrix(1.33333 0 0 1.33333 32.996 188.21)" style="font-variant:normal;font-weight:400;font-size:13.2px;font-family:DejaVuSans;-inkscape-font-specification:DejaVuSans;writing-mode:lr-tb;fill:#262626;fill-opacity:1;fill-rule:nonzero;stroke:none"><tspan x="0 8.3951998 12.5928 20.988001 29.3832" y="0">0.994</tspan></text><g clip-path="url(#l)" transform="matrix(1.33333 0 0 -1.33333 0 437.841)"><path d="M71.016 242.109h365.826" style="fill:none;stroke:#ccc;stroke-width:.8;stroke-linecap:round;stroke-linejoin:round;stroke-miterlimit:10;stroke-dasharray:none;stroke-opacity:1"/></g><text transform="matrix(1.33333 0 0 1.33333 32.996 121.613)" style="font-variant:normal;font-weight:400;font-size:13.2px;font-family:DejaVuSans;-inkscape-font-specification:DejaVuSans;writing-mode:lr-tb;fill:#262626;fill-opacity:1;fill-rule:nonzero;stroke:none"><tspan x="0 8.3951998 12.5928 20.988001 29.3832" y="0">0.996</tspan></text><g clip-path="url(#m)" transform="matrix(1.33333 0 0 -1.33333 0 437.841)"><path d="M71.016 292.057h365.826" style="fill:none;stroke:#ccc;stroke-width:.8;stroke-linecap:round;stroke-linejoin:round;stroke-miterlimit:10;stroke-dasharray:none;stroke-opacity:1"/></g><text transform="matrix(1.33333 0 0 1.33333 32.996 55.016)" style="font-variant:normal;font-weight:400;font-size:13.2px;font-family:DejaVuSans;-inkscape-font-specification:DejaVuSans;writing-mode:lr-tb;fill:#262626;fill-opacity:1;fill-rule:nonzero;stroke:none"><tspan x="0 8.3951998 12.5928 20.988001 29.3832" y="0">0.998</tspan></text><text transform="matrix(0 -1.33333 1.33333 0 23.787 237.064)" style="font-variant:normal;font-weight:400;font-size:14.4px;font-family:DejaVuSans;-inkscape-font-specification:DejaVuSans;writing-mode:lr-tb;fill:#262626;fill-opacity:1;fill-rule:nonzero;stroke:none"><tspan x="0 9.5995998 17.5196 25.4396 34.569199 40.487598 49.3148 57.234798" y="0">Accuracy</tspan></text><g clip-path="url(#n)" transform="matrix(1.33333 0 0 -1.33333 0 437.841)"><path d="M87.644 148.788v61.772l47.51 4.99 47.51 6.69 47.51 15.96 47.51 3.576 47.51 31.825 47.51 26.73 47.51 8.325v-49.847l-47.51-8.325-47.51-31.542-47.51-9.799-47.51-13.072-47.51-17.34-47.51-26.608z" style="fill:#87cefa;fill-opacity:.3;fill-rule:nonzero;stroke:#87cefa;stroke-width:.8;stroke-linecap:butt;stroke-linejoin:round;stroke-miterlimit:10;stroke-dasharray:none;stroke-opacity:.3"/></g><g clip-path="url(#o)" transform="matrix(1.33333 0 0 -1.33333 0 437.841)"><path d="M87.644 148.788v61.772l47.51-9.408 47.51 4.089 47.51-14.952 47.51 5.385 47.51-24.932 47.51 12.619 47.51 1.292V58.15l-47.51 17.942-47.51 4.294-47.51.042-47.51 5.385-47.51 34.996-47.51 12.413-47.51 15.566z" style="fill:gold;fill-opacity:.3;fill-rule:nonzero;stroke:gold;stroke-width:.8;stroke-linecap:butt;stroke-linejoin:round;stroke-miterlimit:10;stroke-dasharray:none;stroke-opacity:.3"/></g><g clip-path="url(#p)" transform="matrix(1.33333 0 0 -1.33333 0 437.841)"><path d="M87.644 148.788v61.772l47.51 13.629 47.51 4.933 47.51 6.44 47.51 27.456 47.51 4.014h95.02v-49.847h-95.02l-47.51-4.31-47.51-22.491-47.51-10.21-47.51-11.716z" style="fill:#2e8b57;fill-opacity:.3;fill-rule:nonzero;stroke:#2e8b57;stroke-width:.8;stroke-linecap:butt;stroke-linejoin:round;stroke-miterlimit:10;stroke-dasharray:none;stroke-opacity:.3"/></g><g clip-path="url(#q)" transform="matrix(1.33333 0 0 -1.33333 0 437.841)"><path d="M87.644 148.788v61.772l47.51 4.466 47.51-2.525 47.51-5.968 47.51-9.59 47.51 5.477 47.51-24.125 47.51 30.562V58.92l-47.51 13.913-47.51 25.822-47.51-19.496-47.51 15.383-47.51 35.656-47.51 14.124z" style="fill:#b22222;fill-opacity:.3;fill-rule:nonzero;stroke:#b22222;stroke-width:.8;stroke-linecap:butt;stroke-linejoin:round;stroke-miterlimit:10;stroke-dasharray:none;stroke-opacity:.3"/></g><g clip-path="url(#r)" transform="matrix(1.33333 0 0 -1.33333 0 437.841)"><path d="M87.644 148.788v61.772l47.51-7.854 47.51 2.595 47.51-20.197 47.51-6.814 47.51 4.88 47.51 4.276 47.51-5.266v-79.933l-47.51 19.707-47.51-4.049-47.51-11.769-47.51 18.16-47.51 21.426-47.51 2.596z" style="fill:plum;fill-opacity:.3;fill-rule:nonzero;stroke:plum;stroke-width:.8;stroke-linecap:butt;stroke-linejoin:round;stroke-miterlimit:10;stroke-dasharray:none;stroke-opacity:.3"/></g><g clip-path="url(#s)" transform="matrix(1.33333 0 0 -1.33333 0 437.841)"><path d="m87.644 179.674 47.51 4.162 47.51 16.65 47.51 16.649 47.51 8.325 47.51 20.811 47.51 29.137 47.51 8.324" style="fill:none;stroke:#1e90ff;stroke-width:1.2;stroke-linecap:round;stroke-linejoin:round;stroke-miterlimit:10;stroke-dasharray:none;stroke-opacity:1"/></g><g clip-path="url(#t)" transform="matrix(1.33333 0 0 -1.33333 0 437.841)"><path d="m87.644 179.674 47.51-12.487 47.51-4.162 47.51-24.974h47.51l47.51-12.487 47.51 4.162 47.51-8.324" style="fill:none;stroke:#ff8c00;stroke-width:1.2;stroke-linecap:round;stroke-linejoin:round;stroke-miterlimit:10;stroke-dasharray:none;stroke-opacity:1"/></g><g clip-path="url(#u)" transform="matrix(1.33333 0 0 -1.33333 0 437.841)"><path d="m87.644 179.674 47.51 16.65 47.51 8.324 47.51 8.325 47.51 24.974 47.51 4.162h95.02" style="fill:none;stroke:#32cd32;stroke-width:1.2;stroke-linecap:round;stroke-linejoin:round;stroke-miterlimit:10;stroke-dasharray:none;stroke-opacity:1"/></g><g clip-path="url(#v)" transform="matrix(1.33333 0 0 -1.33333 0 437.841)"><path d="M87.644 179.674h47.51l47.51-8.325 47.51-20.811 47.51-12.487 47.51 12.487 47.51-24.974 47.51 8.325" style="fill:none;stroke:#cd5c5c;stroke-width:1.2;stroke-linecap:round;stroke-linejoin:round;stroke-miterlimit:10;stroke-dasharray:none;stroke-opacity:1"/></g><g><g clip-path="url(#w)" transform="matrix(1.33333 0 0 -1.33333 0 437.841)"><path d="m87.644 179.674 47.51-4.162h47.51l47.51-20.812 47.51-12.487 47.51 8.325 47.51 4.162 47.51-12.487" style="fill:none;stroke:#9932cc;stroke-width:1.2;stroke-linecap:round;stroke-linejoin:round;stroke-miterlimit:10;stroke-dasharray:none;stroke-opacity:1"/></g></g><g><path d="M71.016 45.625v275.556M436.842 45.625v275.556M71.016 45.625h365.826M71.016 321.181h365.826" style="fill:none;stroke:#ccc;stroke-width:1;stroke-linecap:square;stroke-linejoin:miter;stroke-miterlimit:10;stroke-dasharray:none;stroke-opacity:1" transform="matrix(1.33333 0 0 -1.33333 0 437.841)"/><path d="M80.256 52.225h190.708c1.76 0 2.64.88 2.64 2.64v94.57c0 1.76-.88 2.64-2.64 2.64H80.256c-1.76 0-2.64-.88-2.64-2.64v-94.57c0-1.76.88-2.64 2.64-2.64z" style="fill:#fff;fill-opacity:.8;fill-rule:nonzero;stroke:#ccc;stroke-width:.8;stroke-linecap:butt;stroke-linejoin:miter;stroke-miterlimit:10;stroke-dasharray:none;stroke-opacity:.8" transform="matrix(1.33333 0 0 -1.33333 0 437.841)"/><path d="M82.896 141.54h26.4" style="fill:none;stroke:#1e90ff;stroke-width:1.2;stroke-linecap:round;stroke-linejoin:round;stroke-miterlimit:10;stroke-dasharray:none;stroke-opacity:1" transform="matrix(1.33333 0 0 -1.33333 0 437.841)"/><text transform="matrix(1.33333 0 0 1.33333 159.808 255.28)" style="font-variant:normal;font-weight:400;font-size:13.2px;font-family:DejaVuSans;-inkscape-font-specification:DejaVuSans;writing-mode:lr-tb;fill:#262626;fill-opacity:1;fill-rule:nonzero;stroke:none"><tspan x="0 8.0651999 19.4568 28.670401 32.868 41.25 49.618801 57.7104 66.0924 69.762001 77.879997" y="0">TMC Shapley</tspan></text><path d="M82.896 122.362h26.4" style="fill:none;stroke:#ff8c00;stroke-width:1.2;stroke-linecap:round;stroke-linejoin:round;stroke-miterlimit:10;stroke-dasharray:none;stroke-opacity:1" transform="matrix(1.33333 0 0 -1.33333 0 437.841)"/><text transform="matrix(1.33333 0 0 1.33333 159.808 280.851)" style="font-variant:normal;font-weight:400;font-size:13.2px;font-family:DejaVuSans;-inkscape-font-specification:DejaVuSans;writing-mode:lr-tb;fill:#262626;fill-opacity:1;fill-rule:nonzero;stroke:none"><tspan x="0 10.23 15.37395 23.452351 31.82115 40.203152 44.400749 50.21595 58.33395 65.211151 70.385551 74.055153 82.42395 90.805946 95.003548 103.38555 111.75435 119.84595 128.22795 131.89755 140.01555" y="0">Group Testing Shapley</tspan></text><path d="M82.896 103.184h26.4" style="fill:none;stroke:#32cd32;stroke-width:1.2;stroke-linecap:round;stroke-linejoin:round;stroke-miterlimit:10;stroke-dasharray:none;stroke-opacity:1" transform="matrix(1.33333 0 0 -1.33333 0 437.841)"/><text transform="matrix(1.33333 0 0 1.33333 159.808 306.422)" style="font-variant:normal;font-weight:400;font-size:13.2px;font-family:DejaVuSans;-inkscape-font-specification:DejaVuSans;writing-mode:lr-tb;fill:#262626;fill-opacity:1;fill-rule:nonzero;stroke:none"><tspan x="0 7.1336498 15.25165 23.34325 30.220449 35.394852 39.592449 48.806049 56.884449 62.0284" y="0">Least Core</tspan></text><path d="M82.896 84.006h26.4" style="fill:none;stroke:#cd5c5c;stroke-width:1.2;stroke-linecap:round;stroke-linejoin:round;stroke-miterlimit:10;stroke-dasharray:none;stroke-opacity:1" transform="matrix(1.33333 0 0 -1.33333 0 437.841)"/><text transform="matrix(1.33333 0 0 1.33333 159.808 331.993)" style="font-variant:normal;font-weight:400;font-size:13.2px;font-family:DejaVuSans;-inkscape-font-specification:DejaVuSans;writing-mode:lr-tb;fill:#262626;fill-opacity:1;fill-rule:nonzero;stroke:none"><tspan x="0 7.1336498 15.25165 23.34325 31.15765 39.27565 43.473251 53.861649 62.23045 70.34845 74.546051 84.934448 93.303253" y="0">Leave One Out</tspan></text><path d="M82.896 64.828h26.4" style="fill:none;stroke:#9932cc;stroke-width:1.2;stroke-linecap:round;stroke-linejoin:round;stroke-miterlimit:10;stroke-dasharray:none;stroke-opacity:1" transform="matrix(1.33333 0 0 -1.33333 0 437.841)"/><text transform="matrix(1.33333 0 0 1.33333 159.808 357.564)" style="font-variant:normal;font-weight:400;font-size:13.2px;font-family:DejaVuSans;-inkscape-font-specification:DejaVuSans;writing-mode:lr-tb;fill:#262626;fill-opacity:1;fill-rule:nonzero;stroke:none"><tspan x="0 8.8927498 16.98435 25.353149 33.735149 41.813549" y="0">Random</tspan></text></g></svg>