<svg width="70" height="94" xmlns:xlink="http://www.w3.org/1999/xlink" xmlns="http://www.w3.org/2000/svg"><defs><linearGradient id="a"><stop style="stop-color:#0d757c;stop-opacity:1" offset="0"/><stop style="stop-color:#40aea5;stop-opacity:1" offset=".425"/><stop style="stop-color:#72b971;stop-opacity:1" offset="1"/></linearGradient><linearGradient xlink:href="#a" id="c" x1="49.04" y1="4.058" x2="48.752" y2="73.273" gradientUnits="userSpaceOnUse"/><path id="b" d="M14.959 33.472h520.598v194.674H14.959z"/></defs><g aria-label="pyDVL" transform="matrix(.26458 0 0 .26458 -5.812 58.133)" style="font-size:96px;line-height:1.25;white-space:pre;shape-inside:url(#b);display:inline;fill:#72b971"><path d="M65.743 89.514q0 21.408-11.04 27.36-4.512 2.4-11.04 2.4l-9.216-5.952v21.408h-12.48V63.978h24.576q11.136 0 15.168 6.336 4.032 6.24 4.032 19.2zm-12.48 1.92q0-16.224-10.368-16.224h-8.448v25.44l8.448 5.472q5.568 0 7.968-3.456 2.4-3.552 2.4-11.232zM115.759 63.594l-20.832 60.96q-1.44 4.128-3.744 6.432-3.84 3.84-10.752 3.84h-5.856v-11.232h3.84q2.688 0 3.936-.96 1.344-.864 2.304-3.552l.96-2.688-16.512-52.8h13.152l9.792 38.112 10.56-38.112zM175.663 83.946l.096 7.392q-.384 7.008-1.728 11.808-1.344 4.8-5.28 8.736-6.528 6.528-19.008 6.528-14.688 0-20.16-3.84-5.472-3.936-5.472-14.112v-50.4h26.592q11.52 0 18.048 6.528 5.28 5.28 6.24 12.864.672 5.376.672 14.496zm-16.224 18.336q1.824-2.208 2.304-6.048.576-3.936.576-12.192t-.576-11.904q-.48-3.744-2.304-5.952-3.456-4.224-9.984-4.224h-12v37.824q0 3.84 2.592 5.28 2.592 1.44 9.216 1.44 6.72 0 10.176-4.224zM234.895 50.058 213.39 114.57q-1.728 4.416-6.144 4.416-4.608 0-6.336-4.416l-21.216-64.512h13.824l13.728 44.544 13.728-44.544zM285.295 118.41h-20.352q-11.52 0-16.704-4.416-5.088-4.512-5.088-14.592V50.058h13.344v49.344q0 4.032 1.824 5.568 1.824 1.536 6.624 1.536h20.352z" style="font-family:Viga;-inkscape-font-specification:Viga"/></g><g transform="translate(-11.369 -3.874)"><path style="fill:#312c2b;fill-opacity:1;stroke:none;stroke-width:.205648" d="M22.008 6.746v1.996h-2.759v36.716h2.759v27.98h31.014v-27.98h18.013V8.742H53.022V6.746Z"/><path style="fill:url(#c);fill-opacity:1;stroke:none;stroke-width:.264583px;stroke-linecap:butt;stroke-linejoin:miter;stroke-opacity:1" d="M20.587 3.874a5.284 5.284 0 0 0-5.29 5.285l.008 58.987a5.292 5.292 0 0 0 5.292 5.29h9.695l.1-44.778s.004-.087-.005-.281c.052-8.67 7.34-15.56 16.009-15.562 8.706 0 15.765 7.058 15.765 15.765s-7.058 15.765-15.765 15.765l-.226-.008-.011.08c-3.64 24.13-11.21 28.34-14.4 29.02l23.827-.002a5.28 5.28 0 0 0 5.28-5.292l-.02-9.669a5.296 5.296 0 0 1 5.281-5.307l5.68-.03a5.31 5.31 0 0 0 5.293-5.308l.013-38.584a5.296 5.296 0 0 0-5.29-5.298Z"/><path style="fill:#e38000;fill-opacity:1;stroke:none;stroke-width:.176389" d="M47.377 12.854a15.765 15.765 0 0 1 15.766 15.765H47.377Z"/><circle style="fill:#000;fill-opacity:1;stroke:none;stroke-width:.245522" cx="39.774" cy="23.27" r="3.957"/><circle style="fill:#fff;fill-opacity:1;stroke:none;stroke-width:.117813" cx="39.774" cy="23.27" r="1.899"/><circle style="fill:#000;fill-opacity:1;stroke:none;stroke-width:.0699054" cx="40.552" cy="22.701" r="1.127"/></g></svg>