<svg width="61.817" height="69.564" xmlns:xlink="http://www.w3.org/1999/xlink" xmlns="http://www.w3.org/2000/svg"><defs><linearGradient id="a"><stop style="stop-color:#0d757c;stop-opacity:1" offset="0"/><stop style="stop-color:#40aea5;stop-opacity:1" offset=".425"/><stop style="stop-color:#72b971;stop-opacity:1" offset="1"/></linearGradient><linearGradient xlink:href="#a" id="b" x1="49.04" y1="4.058" x2="48.752" y2="73.273" gradientUnits="userSpaceOnUse"/></defs><g transform="translate(-15.296 -3.874)"><path style="fill:#312c2b;fill-opacity:1;stroke:none;stroke-width:.205648" d="M22.008 6.746v1.996h-2.759v36.716h2.759v27.98h31.014v-27.98h18.013V8.742H53.022V6.746Z"/><path style="fill:url(#b);fill-opacity:1;stroke:none;stroke-width:.264583px;stroke-linecap:butt;stroke-linejoin:miter;stroke-opacity:1" d="M20.587 3.874a5.284 5.284 0 0 0-5.29 5.285l.008 58.987a5.292 5.292 0 0 0 5.292 5.29h9.695l.1-44.778s.004-.087-.005-.281c.052-8.67 7.34-15.56 16.009-15.562 8.706 0 15.765 7.058 15.765 15.765s-7.058 15.765-15.765 15.765l-.226-.008-.011.08c-3.64 24.13-11.21 28.34-14.4 29.02l23.827-.002a5.28 5.28 0 0 0 5.28-5.292l-.02-9.669a5.296 5.296 0 0 1 5.281-5.307l5.68-.03a5.31 5.31 0 0 0 5.293-5.308l.013-38.584a5.296 5.296 0 0 0-5.29-5.298Z"/><path style="fill:#e38000;fill-opacity:1;stroke:none;stroke-width:.176389" d="M47.377 12.854a15.765 15.765 0 0 1 15.766 15.765H47.377Z"/><circle style="fill:#000;fill-opacity:1;stroke:none;stroke-width:.245522" cx="39.774" cy="23.27" r="3.957"/><circle style="fill:#fff;fill-opacity:1;stroke:none;stroke-width:.117813" cx="39.774" cy="23.27" r="1.899"/><circle style="fill:#000;fill-opacity:1;stroke:none;stroke-width:.0699054" cx="40.552" cy="22.701" r="1.127"/></g></svg>